<svg id="Layer_1_Image" data-name="Layer 1 Image" xmlns="http://www.w3.org/2000/svg" viewBox="0 0 152.88 235.07">
  <g>
    <path d="M129.24,212,154,186.58l7.08,5.8c-6.41,5.45-12.66,10.37-18.42,15.79a74.31,74.31,0,0,0-10,11.72c-4.84,6.94-3.4,9.7,4.86,10.44.65.06,1.29.19,1.91.28.26,8.78-10,16.69-18,14.08a9.68,9.68,0,0,1-6.63-11.86c1.53-5.54,4.05-10.81,6.32-16.65-7.65-4.87-15.71-10-23.83-15.12a2.86,2.86,0,0,0-2.29-.18c-12.27,5.52-21.6-.11-30-8.24-3.24-3.14-5.53-7.24-8.26-10.9l.76-1.43c4.21,0,8.44-.23,12.6.17,1,.09,2.11,2.17,2.63,3.55,2.94,7.69,8.48,11.64,15.17,10.16-22.21-19.47-40.23-41-36-73,2.68-20.31,18.14-44,35.77-56.07,2.77,6.8,5.53,13.47,8.15,20.18a2.45,2.45,0,0,1-.85,2C83.58,96.52,80.48,109.66,78.13,123c-3.6,20.32,4.47,45.83,19.09,61.12l8.37-14.28L90.4,153.22c4.74-5.94,11.07-7.56,19-5-1.12,5.39-4.36,11.36,3.36,16.21l14.67-32.26H102.65c5.07-27.17-1-51.51-14.83-74.49l-16.2,3.63c-2-4.16-1.14-6.67,2.72-9.21C81.41,47.43,88,42,94.82,37c5.64-4.16,7.81-3.91,9.68,2.66,6.89,24.13,13.32,48.39,19.91,72.6.48,1.76.82,3.55,1.36,6h35.44c-6.81,10.11-7.6,20.46-6.57,31,1.73,17.84,10.19,31.73,25.19,41.6,3.39,2.24,6.42,2.09,8.34-1.67.56-1.09-.24-3-.64-4.42-.46-1.64-1.16-3.21-1.76-4.8,1.34-.45,2.67-1.24,4-1.29,4.76-.16,9.52-.06,14.31-.06-.45,8.31-11.15,22.52-18,22.56-5.07,0-10.89-2.17-15.08-5.19-7.34-5.29-13.69-12-21.17-18.69-10.79,3.34-22.83,4.38-34.49-1.45L102.09,191Zm16.45-41.27L133.5,149.84l-15.23,18.89C127.08,174.33,135.93,173.76,145.69,170.72Z" transform="translate(-51.22 -10.12)"/>
    <path d="M177.46,181.54c-3.73-2.83-8.57-4.73-9.86-8-1.14-2.9,1.57-7.4,2.81-11.11,8.27-24.86,10.09-49.8,1.13-74.9-8.14-22.83-25-33.39-49.11-30.86-6.85.72-6.85.72-8.86-6.55a24.8,24.8,0,0,0,13.94-14.66,9.87,9.87,0,0,0,.88-4.34c-.19-1.49-1.19-2.88-1.84-4.32-1.24.6-2.49,1.17-3.71,1.81a17.16,17.16,0,0,0-1.57,1.05c-3.69-4.25-3.18-12.56.86-16.25a12.1,12.1,0,0,1,17.09.54,16.2,16.2,0,0,1,1.42,20.66c-2.41,3.34-5.06,6.51-7.79,10,7.32,2.67,14.25,4.85,20.9,7.69,14.45,6.16,27.34,14.64,36.62,27.61,15,20.92,16.31,43.7,8.44,67.55C194.52,160.43,188,172,177.46,181.54Z" transform="translate(-51.22 -10.12)"/>
    <path d="M174.8,60.56c-5.18-2.12-6.89-4.58-4-9.68,3.18-5.65,6.75-10.54,12.64-13.58,7.09-3.65,14.71-1.25,16.73,6.4,1.09,4.17.37,9.1-.7,13.4-.47,1.85-3.85,4-6,4.11s-4.86-1.94-6.14-3.84c-3.39-5-6.1-5.34-9.73-.45C176.73,58.11,175.8,59.26,174.8,60.56Z" transform="translate(-51.22 -10.12)"/>
    <path d="M136.77,116.33a96.27,96.27,0,0,1,12-32.62c1.15-2,2.54-3.9,3.62-5.95,2-3.7,4.63-4,7.64-1.53s4.19,4.75.94,8.25c-7.64,8.24-13.79,17.48-16.53,28.57C143.33,117.54,140.41,116.92,136.77,116.33Z" transform="translate(-51.22 -10.12)"/>
  </g>
</svg>
